<?xml version="1.0" encoding="UTF-8" standalone="no"?>
<!-- Created with Inkscape (http://www.inkscape.org/) -->

<svg
   width="8.6830444mm"
   height="10.574791mm"
   viewBox="0 0 8.6830444 10.574791"
   version="1.1"
   id="svg5"
   xml:space="preserve"
   inkscape:version="1.2.2 (b0a8486, 2022-12-01)"
   sodipodi:docname="boost-store.svg"
   xmlns:inkscape="http://www.inkscape.org/namespaces/inkscape"
   xmlns:sodipodi="http://sodipodi.sourceforge.net/DTD/sodipodi-0.dtd"
   xmlns="http://www.w3.org/2000/svg"
   xmlns:svg="http://www.w3.org/2000/svg"><sodipodi:namedview
     id="namedview7"
     pagecolor="#ffffff"
     bordercolor="#000000"
     borderopacity="0.25"
     inkscape:showpageshadow="2"
     inkscape:pageopacity="0.0"
     inkscape:pagecheckerboard="0"
     inkscape:deskcolor="#d1d1d1"
     inkscape:document-units="mm"
     showgrid="false"
     inkscape:zoom="2.3593454"
     inkscape:cx="-2050.3568"
     inkscape:cy="-462.20447"
     inkscape:window-width="1342"
     inkscape:window-height="668"
     inkscape:window-x="10"
     inkscape:window-y="58"
     inkscape:window-maximized="0"
     inkscape:current-layer="layer1"
     showguides="true" /><defs
     id="defs2"><inkscape:path-effect
       effect="bspline"
       id="path-effect9185"
       is_visible="true"
       lpeversion="1"
       weight="33.333333"
       steps="2"
       helper_size="0"
       apply_no_weight="true"
       apply_with_weight="true"
       only_selected="false" /><linearGradient
       id="linearGradient9071"
       inkscape:swatch="gradient"><stop
         style="stop-color:#000000;stop-opacity:1;"
         offset="0"
         id="stop9067" /><stop
         style="stop-color:#000000;stop-opacity:0;"
         offset="1"
         id="stop9069" /></linearGradient><linearGradient
       id="linearGradient9018"
       inkscape:swatch="solid"><stop
         style="stop-color:#000000;stop-opacity:1;"
         offset="0"
         id="stop9016" /></linearGradient><linearGradient
       id="linearGradient7047"
       inkscape:swatch="solid"><stop
         style="stop-color:#000000;stop-opacity:1;"
         offset="0"
         id="stop7045" /></linearGradient></defs><g
     inkscape:label="Camada 1"
     inkscape:groupmode="layer"
     id="layer1"
     transform="translate(230.72919,53.487166)"><g
       id="g9181"
       transform="matrix(0.8106145,0,0,0.80939778,220.34875,36.691787)"
       inkscape:export-filename="boost-logo-i.png"
       inkscape:export-xdpi="292.52408"
       inkscape:export-ydpi="292.52408"
       style="stroke-width:1.23456"><g
         id="g9179"
         inkscape:export-filename="./logo-boost.svg"
         inkscape:export-xdpi="357.75854"
         inkscape:export-ydpi="357.75854"
         style="stroke-width:1.23456"><path
           style="font-variation-settings:normal;fill:none;fill-opacity:1;stroke:#d9a521;stroke-width:0.370368;stroke-linecap:round;stroke-linejoin:round;stroke-miterlimit:4;stroke-dasharray:none;stroke-dashoffset:0;stroke-opacity:1;paint-order:stroke fill markers;stop-color:#000000"
           d="m -552.55541,-102.64876 -2.00745,3.366048 2.14044,-1.543178 0.31907,1.695173 0.4142,-1.890763 1.22296,1.940073 0.0505,-1.748783 1.89608,1.240403 -1.54386,-3.052303 z"
           id="path9173" /><path
           id="path9175"
           style="fill:none;fill-opacity:1;stroke:#505a87;stroke-width:0.370368;stroke-linecap:round;stroke-linejoin:round;stroke-dasharray:none;stroke-opacity:1;paint-order:markers stroke fill"
           d="m -552.83521,-102.84919 c 0,0 3.03564,0 3.03564,0 m 0,0 c 0,0 -0.003,-1.27 -0.003,-1.27 m -2.99375,-0.0123 c 0,0 -0.0389,1.28232 -0.0389,1.28232 m -0.79938,-1.28234 c 0,0 4.65686,0 4.65686,0 m 0,0 c 0,0 1.59527,1.07412 1.59527,1.07412 m -1.44528,-2.24885 c 0,0 1.44528,2.24885 1.44528,2.24885 m -6.40754,-2.24885 c 0,0 -1.6568,2.51279 -1.6568,2.51279 0,0 1.8122,-1.33806 1.8122,-1.33806 m 0,0 c -0.0205,-0.73533 -0.0513,-1.83959 -0.0176,-2.71208 0.0337,-0.8725 0.12253,-1.71403 0.52984,-2.56526 0.40731,-0.85123 1.20295,-1.79638 1.9707,-1.82036 0.76775,-0.024 1.47564,0.87065 1.85972,1.75362 0.38409,0.88296 0.45459,1.77261 0.45509,2.65212 5.1e-4,0.87951 -0.0705,1.78856 -0.14102,2.69196"
           inkscape:original-d="m -552.83521,-102.84919 h 3.03564 m 0,0 -0.003,-1.27 m -2.99375,-0.0123 -0.0389,1.28232 m -0.79938,-1.28234 h 4.65686 m 0,0 1.59527,1.07412 m -1.44528,-2.24885 1.44528,2.24885 m -6.40754,-2.24885 -1.6568,2.51279 1.8122,-1.33806 m 0,0 c -0.0431,-0.7347 -0.1079,-1.83801 -0.0757,-2.71444 0.0322,-0.87643 0.15084,-1.71481 0.26929,-2.55174 0.59021,-0.97667 1.43342,-1.88178 2.33269,-2.77104 0.80594,0.85104 1.50083,1.75595 2.13046,2.69251 0.10476,0.88084 0.21024,1.76772 0.21021,2.65267 -3e-5,0.88495 -0.10545,1.79131 -0.21021,2.69204"
           inkscape:path-effect="#path-effect9185" /><path
           id="path9177"
           style="fill:none;fill-rule:evenodd;stroke:#505a87;stroke-width:0.326643;stroke-opacity:1"
           d="m -550.0852,-108.24403 a 1.0231388,1.01615 0 0 1 -1.02314,1.01615 1.0231388,1.01615 0 0 1 -1.02314,-1.01615 1.0231388,1.01615 0 0 1 1.02314,-1.01615 1.0231388,1.01615 0 0 1 1.02314,1.01615 z m 4.16939,4.75984 a 5.1925259,4.9710035 0 0 1 -5.19253,4.971002 5.1925259,4.9710035 0 0 1 -5.19252,-4.971002 5.1925259,4.9710035 0 0 1 5.19252,-4.97101 5.1925259,4.9710035 0 0 1 5.19253,4.97101 z" /></g></g></g></svg>
