<?xml version="1.0" encoding="UTF-8" standalone="no"?>
<!-- Created with Inkscape (http://www.inkscape.org/) -->

<svg
   width="10.649658mm"
   height="12.998795mm"
   viewBox="0 0 10.649658 12.998795"
   version="1.1"
   id="svg5"
   xml:space="preserve"
   inkscape:version="1.2.2 (b0a8486, 2022-12-01)"
   sodipodi:docname="boost-store.svg"
   xmlns:inkscape="http://www.inkscape.org/namespaces/inkscape"
   xmlns:sodipodi="http://sodipodi.sourceforge.net/DTD/sodipodi-0.dtd"
   xmlns="http://www.w3.org/2000/svg"
   xmlns:svg="http://www.w3.org/2000/svg"><sodipodi:namedview
     id="namedview7"
     pagecolor="#ffffff"
     bordercolor="#000000"
     borderopacity="0.25"
     inkscape:showpageshadow="2"
     inkscape:pageopacity="0.0"
     inkscape:pagecheckerboard="0"
     inkscape:deskcolor="#d1d1d1"
     inkscape:document-units="mm"
     showgrid="false"
     inkscape:zoom="0.80233277"
     inkscape:cx="-2205.444"
     inkscape:cy="-384.5038"
     inkscape:window-width="1346"
     inkscape:window-height="672"
     inkscape:window-x="6"
     inkscape:window-y="65"
     inkscape:window-maximized="0"
     inkscape:current-layer="layer1"
     showguides="false" /><defs
     id="defs2"><inkscape:path-effect
       effect="bspline"
       id="path-effect21087"
       is_visible="true"
       lpeversion="1"
       weight="33.333333"
       steps="2"
       helper_size="0"
       apply_no_weight="true"
       apply_with_weight="true"
       only_selected="false" /><linearGradient
       id="linearGradient9071"
       inkscape:swatch="gradient"><stop
         style="stop-color:#000000;stop-opacity:1;"
         offset="0"
         id="stop9067" /><stop
         style="stop-color:#000000;stop-opacity:0;"
         offset="1"
         id="stop9069" /></linearGradient><linearGradient
       id="linearGradient9018"
       inkscape:swatch="solid"><stop
         style="stop-color:#000000;stop-opacity:1;"
         offset="0"
         id="stop9016" /></linearGradient><linearGradient
       id="linearGradient7047"
       inkscape:swatch="solid"><stop
         style="stop-color:#000000;stop-opacity:1;"
         offset="0"
         id="stop7045" /></linearGradient></defs><g
     inkscape:label="Camada 1"
     inkscape:groupmode="layer"
     id="layer1"
     transform="translate(557.57264,148.25828)"><g
       id="g21421"
       transform="translate(-1.1394407,-36.878595)"
       inkscape:export-filename="boost-icon.svg"
       inkscape:export-xdpi="224"
       inkscape:export-ydpi="224"><path
         style="font-variation-settings:normal;fill:none;fill-opacity:1;stroke:#d9a521;stroke-width:0.3;stroke-linecap:round;stroke-linejoin:round;stroke-miterlimit:4;stroke-dasharray:none;stroke-dashoffset:0;stroke-opacity:1;paint-order:stroke fill markers;stop-color:#000000"
         d="m -552.55541,-102.64876 -2.00745,3.366048 2.14044,-1.543178 0.31907,1.695173 0.4142,-1.890763 1.22296,1.940073 0.0505,-1.748783 1.89608,1.240403 -1.54386,-3.052303 z"
         id="path21371" /><path
         id="path21085"
         style="fill:none;fill-opacity:1;stroke:#ffffff;stroke-width:0.3;stroke-linecap:round;stroke-linejoin:round;stroke-dasharray:none;stroke-opacity:1;paint-order:markers stroke fill"
         d="m -552.83521,-102.84919 c 0,0 3.03564,0 3.03564,0 m 0,0 c 0,0 -0.003,-1.27 -0.003,-1.27 m -2.99375,-0.0123 c 0,0 -0.0389,1.28232 -0.0389,1.28232 m -0.79938,-1.28234 c 0,0 4.65686,0 4.65686,0 m 0,0 c 0,0 1.59527,1.07412 1.59527,1.07412 m -1.44528,-2.24885 c 0,0 1.44528,2.24885 1.44528,2.24885 m -6.40754,-2.24885 c 0,0 -1.6568,2.51279 -1.6568,2.51279 0,0 1.8122,-1.33806 1.8122,-1.33806 m 0,0 c -0.0205,-0.73533 -0.0513,-1.83959 -0.0176,-2.71208 0.0337,-0.8725 0.12253,-1.71403 0.52984,-2.56526 0.40731,-0.85123 1.20295,-1.79638 1.9707,-1.82036 0.76775,-0.024 1.47564,0.87065 1.85972,1.75362 0.38409,0.88296 0.45459,1.77261 0.45509,2.65212 5.1e-4,0.87951 -0.0705,1.78856 -0.14102,2.69196"
         inkscape:original-d="m -552.83521,-102.84919 h 3.03564 m 0,0 -0.003,-1.27 m -2.99375,-0.0123 -0.0389,1.28232 m -0.79938,-1.28234 h 4.65686 m 0,0 1.59527,1.07412 m -1.44528,-2.24885 1.44528,2.24885 m -6.40754,-2.24885 -1.6568,2.51279 1.8122,-1.33806 m 0,0 c -0.0431,-0.7347 -0.1079,-1.83801 -0.0757,-2.71444 0.0322,-0.87643 0.15084,-1.71481 0.26929,-2.55174 0.59021,-0.97667 1.43342,-1.88178 2.33269,-2.77104 0.80594,0.85104 1.50083,1.75595 2.13046,2.69251 0.10476,0.88084 0.21024,1.76772 0.21021,2.65267 -3e-5,0.88495 -0.10545,1.79131 -0.21021,2.69204"
         inkscape:path-effect="#path-effect21087" /><ellipse
         style="fill:none;fill-rule:evenodd;stroke:#ffffff;stroke-width:0.264583;stroke-opacity:1"
         id="path21091"
         cx="-551.10834"
         cy="-103.48419"
         rx="5.1925259"
         ry="4.9710035" /><ellipse
         style="fill:none;fill-rule:evenodd;stroke:#ffffff;stroke-width:0.264583;stroke-opacity:1"
         id="path21350"
         cx="-551.10834"
         cy="-108.24403"
         rx="1.0231388"
         ry="1.01615" /></g></g></svg>
